<svg width="265" height="246" viewBox="0 0 265 246" fill="none" xmlns="http://www.w3.org/2000/svg">
<path fill-rule="evenodd" clip-rule="evenodd" d="M24.9008 3.85454C15.4736 8.40786 -0.101455 36.9449 0.00049803 49.486C0.0412792 54.8293 5.09815 68.3536 11.2357 79.5419C52.5029 154.768 94.4293 226.597 102.018 235.07C109.841 243.807 113.522 245.139 131.642 245.814C150.085 246.499 153.263 245.611 160.882 237.65C165.582 232.737 187.648 196.68 209.918 157.521C260.939 67.801 265 59.7793 265 48.774C265 36.0566 248.942 8.16036 239.029 3.65451C228.039 -1.33955 35.2898 -1.15986 24.9008 3.85454ZM238.428 13.1815C249.343 21.7491 259.613 44.7394 256.997 54.7513C254.543 64.1393 164.811 222.77 157.151 231.263C153.246 235.592 146.575 237.196 132.461 237.196C118.347 237.196 111.676 235.592 107.772 231.263C100.111 222.77 10.3793 64.1393 7.92564 54.7513C5.30885 44.7394 15.5789 21.7491 26.4947 13.1815C34.2805 7.07543 41.1963 6.64824 132.461 6.64824C223.726 6.64824 230.642 7.07543 238.428 13.1815ZM27.2831 25.8447C13.8457 42.8883 14.6987 47.6518 38.9499 91.0625C60.7645 130.106 61.9675 131.551 69.7295 128.021C76.506 124.943 77.2231 123.254 74.1679 117.565C68.2988 106.621 72.4585 76.4295 81.6886 62.99C90.0181 50.8591 110.368 37.1619 120.06 37.1619C123.01 37.1619 126.935 34.3444 128.784 30.8998C135.092 19.1453 126.925 16.8194 79.3539 16.8194C34.7189 16.8194 34.3484 16.8839 27.2831 25.8447ZM137.09 21.9051C133.858 30.3031 138.072 36.0769 149.029 38.2638C163.067 41.0642 185.558 62.0135 190.469 76.8635C192.739 83.7257 193.667 96.8838 192.603 107.164C191.02 122.461 191.703 125.858 196.923 128.645C202.35 131.544 205.966 126.869 225.898 91.1947C250.703 46.8008 251.675 40.5116 236.13 25.0039C228.294 17.1856 225.935 16.8194 183.485 16.8194C147.119 16.8194 138.69 17.7416 137.09 21.9051ZM61.2606 44.2716C65.1688 51.9101 67.8774 58.6028 67.2792 59.1419C66.6811 59.6809 59.6906 61.1897 51.7484 62.5018C41.8828 64.1258 37.3051 63.668 37.3051 61.0574C37.3051 56.5279 50.3415 30.3811 52.598 30.3811C53.4578 30.3811 57.3558 36.633 61.2606 44.2716ZM219.24 47.567L227.971 64.753L211.651 62.3899C202.676 61.088 194.843 59.6063 194.245 59.0944C192.821 57.8738 206.89 30.3811 208.936 30.3811C209.803 30.3811 214.438 38.1146 219.24 47.567ZM112.781 65.3768L94.8031 75.9956L95.7887 97.7213L96.7776 119.447L114.619 129.486L132.461 139.528L150.303 129.486L168.145 119.447L169.137 97.5653L170.126 75.687L152.179 65.7498C142.306 60.281 133.45 55.5718 132.495 55.2836C131.544 54.992 122.67 59.5351 112.781 65.3768ZM148.203 74.7343C158.592 81.1388 159.649 83.2748 159.649 97.8399C159.649 113.036 158.925 114.3 146.055 121.515L132.461 129.137L118.867 121.515C106.008 114.304 105.274 113.029 105.274 97.8976C105.274 83.5596 106.419 81.1727 116.319 74.8462C122.395 70.9642 129.477 67.7637 132.06 67.7331C134.643 67.7026 141.909 70.8523 148.203 74.7343ZM71.9963 139.722C69.4305 142.807 74.9427 155.243 92.2883 185.492L116.101 227.025H132.454H148.811L171.278 187.869C183.635 166.329 194.102 147.116 194.537 145.17C194.975 143.224 192.726 139.918 189.538 137.823C184.919 134.789 182.153 135.507 175.897 141.369C165.412 151.195 145.433 159.233 131.72 159.142C118.806 159.057 95.493 149.279 88.7165 141.105C83.1635 134.416 76.8424 133.89 71.9963 139.722ZM143.472 186.468L152.787 199.901H132.461H112.135L121.45 186.468C126.572 179.081 131.527 173.036 132.461 173.036C133.396 173.036 138.351 179.081 143.472 186.468Z" fill="white"/>
</svg>
